<svg width="589" height="363" viewBox="0 0 589 363" fill="none" xmlns="http://www.w3.org/2000/svg">
<path d="M588 362.016C554 363.516 490.5 346.616 508.5 267.016C531 167.516 525 164.516 383.5 146.516C242 128.516 211.5 66.5002 241.5 24.016C266.753 -11.7445 365 -14.4839 353.5 78.0161C342 170.516 133.5 202.516 43 49.5162" stroke="url(#paint0_linear_0_1)"/>
<path fill-rule="evenodd" clip-rule="evenodd" d="M46.8882 14.317L49.848 14.8065L45.4206 41.5746C45.8114 41.7129 46.1875 41.8782 46.547 42.0681L63.1192 22.0694L65.4291 23.9836L48.9102 43.918C49.2105 44.254 49.4836 44.6132 49.727 44.9919L74.4359 35.0909L75.5518 37.8756L50.8796 47.762C51.042 48.5005 51.1072 49.2697 51.0631 50.0529L77.7257 54.8149L77.1983 57.7682L50.3716 52.9769C50.1766 53.4263 49.9446 53.8535 49.6801 54.2555L71.0285 71.4752L69.145 73.8103L47.6062 56.4369C47.2391 56.7065 46.8505 56.9466 46.4443 57.1547L57.0985 83.2096L54.3216 84.3451L43.5613 58.0305C43.274 58.0639 42.9831 58.0828 42.6896 58.0864L38.099 85.8415L35.1392 85.3519L39.7298 57.5968C39.1834 57.4035 38.6657 57.1571 38.1817 56.8648L19.4888 79.4227L17.1788 77.5085L35.9277 54.8831C35.704 54.6021 35.4981 54.3072 35.3114 54.0003L8.71779 64.6566L7.60192 61.8719L34.2281 51.2025C34.1561 50.8311 34.1086 50.4524 34.0871 50.0685L6.31984 45.1092L6.8473 42.156L34.4501 47.0858C34.5521 46.7529 34.6734 46.4298 34.8127 46.1176L13.1035 28.6068L14.987 26.2717L36.5085 43.6311C36.7763 43.3588 37.0617 43.1051 37.3626 42.8716L27.0703 17.7015L29.8471 16.5661L40.032 41.4732C40.8063 41.2298 41.623 41.0953 42.4608 41.085L46.8882 14.317Z" fill="#83A17D"/>
<defs>
<linearGradient id="paint0_linear_0_1" x1="-60.9999" y1="-56.0001" x2="528" y2="313" gradientUnits="userSpaceOnUse">
<stop/>
<stop offset="0.553176" stop-color="white"/>
<stop offset="1" stop-opacity="0"/>
</linearGradient>
</defs>
</svg>
